<svg width="61" height="54" viewBox="0 0 61 54" fill="none" xmlns="http://www.w3.org/2000/svg">
<mask id="path-1-inside-1_76_264" fill="white">
<path fill-rule="evenodd" clip-rule="evenodd" d="M0.0684204 11.5505C0.0684204 15.9828 2.78684 19.7801 6.64735 21.3662C5.82021 23.8366 5.37212 26.4807 5.37212 29.2295C5.37212 42.8989 16.4533 53.9801 30.1227 53.9801C43.7921 53.9801 54.8733 42.8989 54.8733 29.2295C54.8733 26.4807 54.4252 23.8366 53.598 21.3662C57.4586 19.7801 60.177 15.9828 60.177 11.5505C60.177 5.69221 55.4279 0.943115 49.5696 0.943115C45.4959 0.943115 41.9586 3.23946 40.1815 6.60831C37.1081 5.23963 33.7042 4.47891 30.1227 4.47891C26.5412 4.47891 23.1373 5.23963 20.0639 6.60831C18.2868 3.23946 14.7495 0.943115 10.6758 0.943115C4.81751 0.943115 0.0684204 5.69221 0.0684204 11.5505Z"/>
</mask>
<path d="M6.64735 21.3662L9.49213 22.3187L10.3831 19.6577L7.78742 18.5912L6.64735 21.3662ZM53.598 21.3662L52.458 18.5912L49.8623 19.6577L50.7533 22.3187L53.598 21.3662ZM40.1815 6.60831L38.961 9.34884L41.5252 10.4908L42.8349 8.00805L40.1815 6.60831ZM20.0639 6.60831L17.4105 8.00805L18.7202 10.4908L21.2844 9.34884L20.0639 6.60831ZM7.78742 18.5912C5.01307 17.4514 3.06842 14.7245 3.06842 11.5505H-2.93158C-2.93158 17.241 0.560602 22.1088 5.50727 24.1411L7.78742 18.5912ZM8.37212 29.2295C8.37212 26.8086 8.76648 24.486 9.49213 22.3187L3.80256 20.4137C2.87395 23.1872 2.37212 26.1528 2.37212 29.2295H8.37212ZM30.1227 50.9801C18.1102 50.9801 8.37212 41.242 8.37212 29.2295H2.37212C2.37212 44.5557 14.7965 56.9801 30.1227 56.9801V50.9801ZM51.8733 29.2295C51.8733 41.242 42.1352 50.9801 30.1227 50.9801V56.9801C45.4489 56.9801 57.8733 44.5557 57.8733 29.2295H51.8733ZM50.7533 22.3187C51.4789 24.486 51.8733 26.8086 51.8733 29.2295H57.8733C57.8733 26.1528 57.3714 23.1872 56.4428 20.4137L50.7533 22.3187ZM57.177 11.5505C57.177 14.7245 55.2323 17.4514 52.458 18.5912L54.7381 24.1411C59.6848 22.1088 63.177 17.241 63.177 11.5505H57.177ZM49.5696 3.94312C53.771 3.94312 57.177 7.34906 57.177 11.5505H63.177C63.177 4.03535 57.0847 -2.05688 49.5696 -2.05688V3.94312ZM42.8349 8.00805C44.1134 5.5844 46.6522 3.94312 49.5696 3.94312V-2.05688C44.3396 -2.05688 39.8038 0.894522 37.528 5.20857L42.8349 8.00805ZM30.1227 7.47891C33.2756 7.47891 36.2643 8.14791 38.961 9.34884L41.4019 3.86777C37.9518 2.33135 34.1328 1.47891 30.1227 1.47891V7.47891ZM21.2844 9.34884C23.9811 8.14791 26.9698 7.47891 30.1227 7.47891V1.47891C26.1126 1.47891 22.2936 2.33135 18.8435 3.86778L21.2844 9.34884ZM10.6758 3.94312C13.5932 3.94312 16.132 5.5844 17.4105 8.00805L22.7174 5.20857C20.4416 0.894524 15.9058 -2.05688 10.6758 -2.05688V3.94312ZM3.06842 11.5505C3.06842 7.34906 6.47437 3.94312 10.6758 3.94312V-2.05688C3.16066 -2.05688 -2.93158 4.03535 -2.93158 11.5505H3.06842Z" fill="#3C7E5B" mask="url(#path-1-inside-1_76_264)"/>
<path d="M30.5647 31.8813C35.6907 31.8813 39.8461 27.4489 39.8461 21.9811L39.8461 20.506C39.8461 19.9538 39.3984 19.506 38.8461 19.506L22.2832 19.506C21.7309 19.506 21.2832 19.9538 21.2832 20.506L21.2832 21.9811C21.2832 27.4489 25.4387 31.8813 30.5647 31.8813Z" fill="#3C7E5B"/>
<circle cx="11.7073" cy="11.8945" r="5.59785" fill="#3C7E5B"/>
<circle cx="48.6125" cy="11.8945" r="5.59785" fill="#3C7E5B"/>
<circle cx="51.8112" cy="10.2951" r="2.39908" fill="white"/>
<circle cx="14.9061" cy="10.2951" r="2.39908" fill="white"/>
</svg>
