<svg width="47" height="60" viewBox="0 0 47 60" fill="none" xmlns="http://www.w3.org/2000/svg">
<path d="M2.20363 36.4828V36.4232L2.1989 36.3638C1.865 32.1694 4.09732 26.9188 7.52454 21.5922C10.906 16.3368 15.2575 11.2973 18.7289 7.60661C21.3423 4.82799 25.6055 4.85171 28.1862 7.65937C31.5338 11.3016 35.7194 16.2543 39.059 21.4749C42.4329 26.7489 44.79 32.0641 44.79 36.4828C44.79 48.3115 35.2498 57.8879 23.4968 57.8879C11.7438 57.8879 2.20363 48.3115 2.20363 36.4828Z" stroke="#3C7E5B" stroke-width="3"/>
<path d="M25.4333 49.6113C29.3439 49.6113 37.1652 45.7007 37.1652 35.2723" stroke="#3C7E5B" stroke-width="3" stroke-linecap="round" stroke-linejoin="round"/>
<circle cx="35.5823" cy="29.1271" r="2.32776" fill="#3C7E5B"/>
</svg>
