<svg width="90" height="90" viewBox="0 0 90 90" fill="none" xmlns="http://www.w3.org/2000/svg">
<path d="M59.4292 24.2499C59.4537 24.2263 59.4774 24.2018 59.5002 24.1765C61.2565 22.2337 64.102 21.7195 66.4271 22.9248C66.5958 23.0123 66.7334 23.1498 66.8208 23.3185C68.0261 25.6437 67.5119 28.4892 65.5691 30.2454C65.5435 30.2685 65.5188 30.2925 65.4948 30.3173L55.806 40.3722C55.3831 40.811 55.2678 41.4622 55.5142 42.0196L65.8495 65.3935L61.9004 69.3426L47.8901 49.899C47.6414 49.554 47.258 49.3307 46.8353 49.2848C46.4125 49.2388 45.9901 49.3744 45.6731 49.6579L31.9869 61.8989C31.7859 62.0787 31.637 62.3095 31.5561 62.5668L29.0068 70.6686C28.9925 70.714 28.9804 70.7601 28.9705 70.8067C28.9002 71.1371 28.4916 71.2581 28.2527 71.0192L26.7607 69.5272C26.4619 69.2284 26.2229 68.8752 26.0568 68.4866L25.1384 66.3392C24.7863 65.5158 24.1258 64.863 23.2982 64.5206L21.2742 63.6832C20.8716 63.5166 20.5057 63.2722 20.1976 62.9641L18.7264 61.4929C18.4875 61.2541 18.6085 60.8455 18.9389 60.7752C18.9855 60.7653 19.0316 60.7532 19.0771 60.7389L27.1789 58.1896C27.4362 58.1087 27.6669 57.9598 27.8467 57.7587L40.0383 44.1272C40.3219 43.8102 40.4575 43.3877 40.4115 42.9649C40.3654 42.5421 40.1421 42.1587 39.797 41.9101L20.7388 28.1809L24.6878 24.2318L47.61 34.3603C48.1678 34.6068 48.8193 34.491 49.258 34.0675L59.4292 24.2499Z" stroke="#3C7E5B" stroke-width="3" stroke-linejoin="round"/>
</svg>
