<svg width="22" height="33" viewBox="0 0 22 33" fill="none" xmlns="http://www.w3.org/2000/svg">
<path d="M11 16.1966C8.33229 16.273 5.78038 19.9706 8.08014 21.3247C8.67493 21.6749 9.48198 21.8636 10.6667 21.8636C16.5577 21.8636 21.3333 17.088 21.3333 11.1969C21.3333 5.3059 16.5577 0.530273 10.6667 0.530273C4.77565 0.530273 1.14441e-05 5.3059 1.14441e-05 11.1969C1.14441e-05 11.2256 1.14441e-05 11.2528 4.76837e-05 11.279C0.000597 11.6812 0.342331 11.9897 0.744488 11.9849L4.3894 11.9416C5.00783 11.9342 5.66668 11.6487 5.66668 11.0303C5.66668 8.1768 7.97987 5.86361 10.8333 5.86361C13.6868 5.86361 16 8.1768 16 11.0303C16 13.828 13.7763 16.1063 11 16.1943L11 16.1966Z" fill="#E2E9BA"/>
<path d="M12.3077 18.6585C12.3077 17.299 11.2056 16.1969 9.84616 16.1969H9.46155C8.10208 16.1969 7.00001 17.299 7.00001 18.6585V22.7169C7.00001 24.0997 7.57767 25.3103 8.96001 25.2769H10.6667C12.0026 25.2447 12.3077 24.0533 12.3077 22.7169V18.6585Z" fill="#E2E9BA"/>
<path d="M6.64662 29.3636C6.64662 31.1125 8.06438 32.5303 9.81328 32.5303C11.5622 32.5303 12.9799 31.1125 12.9799 29.3636C12.9799 27.6147 11.5622 26.197 9.81328 26.197C8.06438 26.197 6.64662 27.6147 6.64662 29.3636Z" fill="#E2E9BA"/>
</svg>
