<svg width="55" height="40" viewBox="0 0 55 40" fill="none" xmlns="http://www.w3.org/2000/svg">
<path d="M52.7963 6.20262V29.2993C52.7963 31.7651 50.1154 33.811 47.3696 33.2296C41.6035 32.0086 33.1579 31.35 26.3627 35.5963C22.6865 37.8935 18.3172 38.5529 14.1391 38.4071C9.96841 38.2616 6.10886 37.3174 3.56813 36.5328C2.35234 36.1574 1.51898 34.9864 1.51898 33.5654V10.3935C1.51898 7.92225 4.17375 6.03176 6.93033 6.83556C10.536 7.88695 13.7908 8.17718 17.1739 7.65865C20.532 7.14395 23.9315 5.84502 27.8413 3.84287C31.1614 2.14272 35.381 1.61581 39.5616 1.70083C43.7174 1.78533 47.684 2.47029 50.3961 3.06628C51.796 3.37391 52.7963 4.651 52.7963 6.20262Z" stroke="#3C7E5B" stroke-width="3"/>
<path d="M33.3502 20.0592C33.3502 24.3797 30.3757 27.4881 27.1577 27.4881C23.9396 27.4881 20.9651 24.3797 20.9651 20.0592C20.9651 15.7387 23.9396 12.6303 27.1577 12.6303C30.3757 12.6303 33.3502 15.7387 33.3502 20.0592Z" stroke="#3C7E5B" stroke-width="3"/>
<path d="M10.6335 15.5948C10.6335 17.4496 9.38107 18.5592 8.28729 18.5592C7.19352 18.5592 5.94104 17.4496 5.94104 15.5948C5.94104 13.7399 7.19352 12.6303 8.28729 12.6303C9.38107 12.6303 10.6335 13.7399 10.6335 15.5948Z" stroke="#3C7E5B" stroke-width="3"/>
<path d="M48.3747 25.2335C48.3747 27.0884 47.1222 28.198 46.0284 28.198C44.9346 28.198 43.6822 27.0884 43.6822 25.2335C43.6822 23.3787 44.9346 22.2691 46.0284 22.2691C47.1222 22.2691 48.3747 23.3787 48.3747 25.2335Z" stroke="#3C7E5B" stroke-width="3"/>
</svg>
