<svg width="57" height="49" viewBox="0 0 57 49" fill="none" xmlns="http://www.w3.org/2000/svg">
<path d="M7.82965 15.877C7.82965 15.0114 8.27743 14.2073 9.01333 13.7516L27.0473 2.58258C27.8538 2.0831 28.8735 2.0831 29.6799 2.58258L47.7139 13.7516C48.4498 14.2073 48.8976 15.0114 48.8976 15.877V44.6268C48.8976 46.0075 47.7783 47.1268 46.3976 47.1268H10.3296C8.94894 47.1268 7.82965 46.0075 7.82965 44.6268V15.877Z" stroke="#3C7E5B" stroke-width="3"/>
<path d="M21.5173 38.4206C21.5173 34.6394 24.5825 31.5742 28.3636 31.5742C32.1448 31.5742 35.21 34.6394 35.21 38.4206V46.0629H21.5173V38.4206Z" stroke="#3C7E5B" stroke-width="3"/>
<path d="M55.0748 17.801L28.3636 1.67511" stroke="#3C7E5B" stroke-width="3" stroke-linecap="round"/>
<path d="M1.52377 17.801L28.2349 1.67511" stroke="#3C7E5B" stroke-width="3" stroke-linecap="round"/>
<path d="M37.7119 7.38825V1.67511H45.7266V12.6382" stroke="#3C7E5B" stroke-width="3" stroke-linecap="round" stroke-linejoin="round"/>
</svg>
