<svg width="32" height="33" viewBox="0 0 32 33" fill="none" xmlns="http://www.w3.org/2000/svg">
<path d="M17.4881 2.54527C7.02965 1.11435 3.17288 9.36986 2.37837 13.8917C0.227387 23.0906 7.72148 28.2245 12.8955 30.0294C18.0695 31.8342 18.7359 28.62 18.0695 27.1183C17.6044 26.0703 16.7537 25.0184 17.4881 23.6833C18.1765 22.4318 20.1236 22.4606 21.1506 22.6935C28.6384 23.7182 30.1615 17.6865 29.9871 14.5426C30.0258 11.4569 27.7193 3.94508 17.4881 2.54527Z" fill="#E2E9BA" stroke="#E2E9BA" stroke-width="3" stroke-linecap="round"/>
<path d="M12.7061 11.2713C12.7061 12.5647 11.6593 13.612 10.3696 13.612C9.07984 13.612 8.03305 12.5647 8.03305 11.2713C8.03305 9.97785 9.07984 8.93057 10.3696 8.93057C11.6593 8.93057 12.7061 9.97785 12.7061 11.2713Z" fill="white" stroke="#E2E9BA"/>
<path d="M19.2189 8.43058C19.2189 9.72401 18.1721 10.7713 16.8824 10.7713C15.5927 10.7713 14.5459 9.72401 14.5459 8.43058C14.5459 7.13715 15.5927 6.08987 16.8824 6.08987C18.1721 6.08987 19.2189 7.13715 19.2189 8.43058Z" fill="white" stroke="#E2E9BA"/>
<path d="M25.7323 12.0169C25.7323 13.3103 24.6855 14.3576 23.3958 14.3576C22.1061 14.3576 21.0593 13.3103 21.0593 12.0169C21.0593 10.7235 22.1061 9.67618 23.3958 9.67618C24.6855 9.67618 25.7323 10.7235 25.7323 12.0169Z" fill="white" stroke="#E2E9BA"/>
<path d="M10.6037 18.0671C10.6037 19.3605 9.55686 20.4078 8.26714 20.4078C6.97742 20.4078 5.93063 19.3605 5.93063 18.0671C5.93063 16.7737 6.97742 15.7264 8.26714 15.7264C9.55686 15.7264 10.6037 16.7737 10.6037 18.0671Z" fill="white" stroke="#E2E9BA"/>
</svg>
