<svg width="45" height="45" viewBox="0 0 45 45" fill="none" xmlns="http://www.w3.org/2000/svg">
<path fill-rule="evenodd" clip-rule="evenodd" d="M17.4711 0.564134C19.088 0.194986 20.7712 1.17655e-05 22.4999 0C24.0332 0 25.5306 0.153364 26.9777 0.44559L26.1904 3.76548C28.7336 4.26356 31.0959 5.26658 33.1686 6.66587L35.0335 3.81136C37.7675 5.64856 40.0763 8.06983 41.781 10.8965L38.8601 12.6552C39.8893 14.3618 40.659 16.2425 41.1146 18.2428L44.4442 17.5077C44.808 19.1134 45 20.7843 45 22.5C45 24.0193 44.8494 25.5034 44.5624 26.9382L41.2423 26.1508C40.77 28.5899 39.8333 30.8634 38.5281 32.8756L41.4503 34.6351C39.7105 37.3464 37.4048 39.6598 34.6999 41.4086L32.8351 38.5543C30.8552 39.8315 28.6238 40.7524 26.2317 41.2264L26.9864 44.5527C25.5366 44.846 24.0363 45 22.5 45C20.8065 45 19.1567 44.8129 17.5701 44.4583L18.3376 41.1358C16.087 40.6353 13.986 39.7376 12.1121 38.5199L10.2473 41.3742C7.55433 39.6225 5.25967 37.31 3.52878 34.6023L6.45093 32.8429C5.17629 30.8691 4.25585 28.6451 3.77951 26.2608L0.449268 26.996C0.154651 25.5432 0 24.0397 0 22.5C0 20.7784 0.193369 19.1019 0.559572 17.4911L3.87764 18.2779C4.32922 16.2776 5.09483 14.3963 6.11994 12.6886L3.19885 10.9298C4.89467 8.10694 7.19222 5.68676 9.91409 3.84665L11.7792 6.70139C13.6999 5.39542 15.8713 4.43057 18.2062 3.89391L17.4711 0.564134ZM34.0909 22.5C34.0909 28.9015 28.9015 34.0909 22.5 34.0909C16.0985 34.0909 10.9091 28.9015 10.9091 22.5C10.9091 16.0985 16.0985 10.9091 22.5 10.9091C28.9015 10.9091 34.0909 16.0985 34.0909 22.5Z" fill="#E2E9BA"/>
</svg>
