<svg width="52" height="45" viewBox="0 0 52 45" fill="none" xmlns="http://www.w3.org/2000/svg">
<path d="M25.1227 6.60048C25.4071 6.96026 25.8406 7.17012 26.2993 7.17012C26.7579 7.17012 27.1914 6.96026 27.4759 6.60048C29.8198 3.63622 33.3927 1.75485 37.3876 1.75485C44.3972 1.75485 50.1341 7.56905 50.1341 14.8091C50.1341 19.0162 48.7398 22.1282 45.1943 26.9068C43.4905 29.2033 39.5499 32.8856 35.9101 36.0824C34.1147 37.6594 32.4308 39.0855 31.1953 40.1177C30.5778 40.6335 30.0729 41.0505 29.7229 41.3381C29.5479 41.4819 29.4116 41.5933 29.3194 41.6686L29.2147 41.7539L29.1884 41.7753L29.182 41.7805L29.1805 41.7817L29.1801 41.782L30.1249 42.9471L29.1801 41.782C29.1658 41.7936 29.1517 41.8055 29.1379 41.8176C28.4498 42.4188 27.3526 42.7551 26.1548 42.7298C24.9394 42.7041 23.9401 42.3145 23.4436 41.8503C23.4285 41.8362 23.4131 41.8224 23.3974 41.8089L22.4192 42.946C23.3974 41.8089 23.3974 41.8089 23.3973 41.8088L23.397 41.8085L23.3955 41.8072L23.3892 41.8019L23.3642 41.7803L23.265 41.6948C23.1778 41.6195 23.0489 41.5081 22.8831 41.3645C22.5516 41.0772 22.0724 40.661 21.4831 40.146C20.3043 39.1156 18.6858 37.6908 16.9265 36.1123C13.3891 32.9384 9.3452 29.1988 7.13433 26.787C4.96814 24.4239 3.8319 22.4915 3.21605 20.6774C2.59685 18.8534 2.46448 17.0393 2.46448 14.8091C2.46448 7.56905 8.20134 1.75485 15.211 1.75485C19.2058 1.75485 22.7788 3.63622 25.1227 6.60048Z" stroke="#3C7E5B" stroke-width="3" stroke-linejoin="round"/>
</svg>
