<svg width="48" height="41" viewBox="0 0 48 41" fill="none" xmlns="http://www.w3.org/2000/svg">
<path d="M26.8577 14.2064C26.8577 21.5508 21.0297 27.5047 13.8406 27.5047C7.05817 27.5047 0.823425 21.5508 0.823425 14.2064C0.823425 6.86195 6.65139 0.908096 13.8406 0.908096C21.0297 0.908096 26.8577 6.86195 26.8577 14.2064Z" fill="#E2E9BA"/>
<path d="M21.0863 14.2064C21.0863 21.5509 26.9143 27.5047 34.1035 27.5047C40.8859 27.5047 47.1206 21.5509 47.1206 14.2064C47.1206 6.86196 41.2926 0.908112 34.1035 0.908112C26.9143 0.908112 21.0863 6.86196 21.0863 14.2064Z" fill="#E2E9BA"/>
<path d="M25.6401 39.9163C24.7113 40.784 23.1825 40.7836 22.2542 39.9154L4.82571 23.6143C3.36187 22.2452 4.42438 19.9424 6.51965 19.943L41.3856 19.953C43.4809 19.9536 44.5421 22.257 43.0775 23.6253L25.6401 39.9163Z" fill="#E2E9BA"/>
</svg>
