<svg width="52" height="52" viewBox="0 0 52 52" fill="none" xmlns="http://www.w3.org/2000/svg">
<path d="M33.2709 4.18655C33.2709 3.08198 32.3755 2.18655 31.2709 2.18655H21.0127C19.9081 2.18655 19.0127 3.08198 19.0127 4.18655V17.0797C19.0127 18.1843 18.1173 19.0797 17.0127 19.0797H4.11951C3.01494 19.0797 2.11951 19.9751 2.11951 21.0797L2.11951 31.3379C2.11951 32.4425 3.01494 33.3379 4.11951 33.3379H17.0127C18.1173 33.3379 19.0127 34.2334 19.0127 35.3379V48.2311C19.0127 49.3357 19.9081 50.2311 21.0127 50.2311H31.2709C32.3755 50.2311 33.2709 49.3357 33.2709 48.2311V35.3379C33.2709 34.2334 34.1664 33.3379 35.2709 33.3379H48.1641C49.2686 33.3379 50.1641 32.4425 50.1641 31.3379V21.0797C50.1641 19.9751 49.2686 19.0797 48.1641 19.0797H35.2709C34.1664 19.0797 33.2709 18.1843 33.2709 17.0797V4.18655Z" stroke="#3C7E5B" stroke-width="3" stroke-linejoin="round"/>
</svg>
