<svg width="69" height="69" viewBox="0 0 69 69" fill="none" xmlns="http://www.w3.org/2000/svg">
<path d="M31.8626 12.5813C32.6109 10.278 35.8695 10.278 36.6178 12.5813L39.603 21.7685C40.3393 24.0347 42.451 25.5689 44.8338 25.5689H54.4938C56.9156 25.5689 57.9226 28.668 55.9633 30.0915L48.1482 35.7695C46.2205 37.1701 45.4139 39.6526 46.1502 41.9187L49.1353 51.106C49.8837 53.4093 47.2475 55.3246 45.2882 53.9011L37.473 48.223C35.5453 46.8225 32.9351 46.8225 31.0074 48.223L23.1922 53.9011C21.2329 55.3246 18.5967 53.4092 19.3451 51.106L22.3302 41.9187C23.0666 39.6526 22.2599 37.1701 20.3323 35.7695L12.5171 30.0915C10.5578 28.668 11.5648 25.5689 13.9866 25.5689H23.6466C26.0294 25.5689 28.1411 24.0347 28.8774 21.7685L31.8626 12.5813Z" stroke="#3C7E5B" stroke-width="3"/>
</svg>
