<svg width="42" height="59" viewBox="0 0 42 59" fill="none" xmlns="http://www.w3.org/2000/svg">
<path d="M19.5731 54.0653L21.0127 53.6565C21.1987 54.3083 20.9275 55.0028 20.3505 55.3524L19.5731 54.0653ZM19.5731 54.0653C20.3505 55.3524 20.3501 55.3526 20.3497 55.3528L20.3488 55.3534L20.3468 55.3546L20.3416 55.3577L20.327 55.3664C20.3154 55.3733 20.3 55.3823 20.281 55.3933C20.243 55.4153 20.1904 55.4453 20.1244 55.4816C19.9925 55.5542 19.8062 55.6529 19.5745 55.7654C19.1135 55.9894 18.4613 56.2741 17.6934 56.5163C16.2072 56.9852 14.0446 57.3726 11.9889 56.5582C9.9331 55.7439 8.61193 53.9765 7.84103 52.6134C7.44274 51.9092 7.15778 51.2533 6.97176 50.773C6.8783 50.5317 6.80861 50.3316 6.76118 50.1879C6.73743 50.116 6.71918 50.058 6.70625 50.0159C6.69978 49.9948 6.69463 49.9776 6.69078 49.9646L6.68598 49.9482L6.6843 49.9424L6.68364 49.9401L6.68336 49.9391C6.68323 49.9386 6.6831 49.9382 8.12262 49.5294M19.5731 54.0653C21.0127 53.6565 21.0125 53.656 21.0124 53.6556L21.0121 53.6546L21.0115 53.6523L21.0098 53.6465L21.005 53.6301C21.0011 53.6171 20.996 53.5999 20.9895 53.5788C20.9766 53.5366 20.9583 53.4786 20.9346 53.4067C20.8872 53.2631 20.8175 53.063 20.724 52.8217C20.538 52.3414 20.253 51.6855 19.8547 50.9812C19.0838 49.6182 17.7627 47.8508 15.7069 47.0364C13.6511 46.2221 11.4886 46.6094 10.0023 47.0784C9.23447 47.3206 8.58223 47.6053 8.12122 47.8293C7.88958 47.9418 7.70323 48.0405 7.57136 48.1131C7.50535 48.1494 7.45277 48.1794 7.41476 48.2014C7.39575 48.2124 7.38037 48.2214 7.36875 48.2283L7.35415 48.237L7.349 48.2401L7.34697 48.2413L7.34609 48.2419C7.34569 48.2421 7.3453 48.2423 8.12262 49.5294M8.12262 49.5294L6.6831 49.9382C6.49707 49.2864 6.76827 48.5919 7.3453 48.2423L8.12262 49.5294Z" stroke="#3C7E5B" stroke-width="3" stroke-linejoin="round"/>
<path d="M22.2 54.0653L20.7605 53.6565C20.5744 54.3083 20.8456 55.0028 21.4227 55.3524L22.2 54.0653ZM22.2 54.0653C21.4227 55.3524 21.4231 55.3526 21.4235 55.3528L21.4243 55.3534L21.4264 55.3546L21.4315 55.3577L21.4461 55.3664C21.4577 55.3733 21.4731 55.3823 21.4921 55.3933C21.5301 55.4153 21.5827 55.4453 21.6487 55.4816C21.7806 55.5542 21.967 55.6529 22.1986 55.7654C22.6596 55.9894 23.3118 56.2741 24.0797 56.5163C25.5659 56.9852 27.7285 57.3726 29.7843 56.5582C31.84 55.7439 33.1612 53.9765 33.9321 52.6134C34.3304 51.9092 34.6154 51.2533 34.8014 50.773C34.8948 50.5317 34.9645 50.3316 35.012 50.1879C35.0357 50.116 35.0539 50.058 35.0669 50.0159C35.0734 49.9948 35.0785 49.9776 35.0824 49.9646L35.0872 49.9482L35.0888 49.9424L35.0895 49.9401L35.0898 49.9391C35.0899 49.9386 35.09 49.9382 33.6505 49.5294M22.2 54.0653C20.7605 53.6565 20.7606 53.656 20.7607 53.6556L20.761 53.6546L20.7617 53.6523L20.7633 53.6465L20.7682 53.6301C20.772 53.6171 20.7771 53.5999 20.7836 53.5788C20.7966 53.5366 20.8148 53.4786 20.8385 53.4067C20.886 53.2631 20.9557 53.063 21.0491 52.8217C21.2351 52.3414 21.5201 51.6855 21.9184 50.9812C22.6893 49.6182 24.0105 47.8508 26.0662 47.0364C28.122 46.2221 30.2846 46.6094 31.7708 47.0784C32.5387 47.3206 33.1909 47.6053 33.6519 47.8293C33.8836 47.9418 34.0699 48.0405 34.2018 48.1131C34.2678 48.1494 34.3204 48.1794 34.3584 48.2014C34.3774 48.2124 34.3928 48.2214 34.4044 48.2283L34.419 48.237L34.4241 48.2401L34.4262 48.2413L34.427 48.2419C34.4274 48.2421 34.4278 48.2423 33.6505 49.5294M33.6505 49.5294L35.09 49.9382C35.2761 49.2864 35.0049 48.5919 34.4278 48.2423L33.6505 49.5294Z" stroke="#3C7E5B" stroke-width="3" stroke-linejoin="round"/>
<mask id="path-3-inside-1_76_223" fill="white">
<path fill-rule="evenodd" clip-rule="evenodd" d="M30.6509 9.75497L30.6511 9.69358C30.6511 4.81944 26.4721 0.868164 21.317 0.868164C16.1619 0.868164 11.9829 4.81944 11.9829 9.69358C11.9829 9.75937 11.9836 9.82499 11.9852 9.89043C11.3502 9.76147 10.6912 9.69357 10.0155 9.69357C4.86038 9.69357 0.681366 13.6448 0.681366 18.519C0.681366 22.0226 2.84063 25.0493 5.96957 26.4745C4.58848 28.0132 3.75539 30.0055 3.75539 32.1817C3.75539 37.0559 7.93441 41.0071 13.0895 41.0071C16.3483 41.0071 19.217 39.4282 20.8866 37.0352C22.5561 39.4282 25.4249 41.0071 28.6837 41.0071C33.8387 41.0071 38.0178 37.0559 38.0178 32.1817C38.0178 30.0055 37.1847 28.0132 35.8036 26.4745C38.9325 25.0493 41.0918 22.0226 41.0918 18.519C41.0918 13.6448 36.9127 9.69357 31.7577 9.69357C31.3832 9.69357 31.0138 9.71443 30.6509 9.75497Z"/>
</mask>
<path d="M30.6511 9.69358L33.6511 9.70439V9.69358H30.6511ZM30.6509 9.75497L27.6509 9.74416C27.6478 10.5997 28.0101 11.4158 28.6467 11.9873C29.2833 12.5589 30.1337 12.8314 30.9839 12.7364L30.6509 9.75497ZM11.9852 9.89043L11.3881 12.8304C12.2823 13.012 13.2106 12.7768 13.9104 12.1912C14.6102 11.6056 15.0055 10.7333 14.9844 9.82103L11.9852 9.89043ZM5.96957 26.4745L8.20218 28.4784C8.84006 27.7677 9.10147 26.7957 8.90616 25.8609C8.71085 24.9261 8.08216 24.1402 7.21308 23.7443L5.96957 26.4745ZM20.8866 37.0352L23.3469 35.3186C22.7858 34.5145 21.8671 34.0352 20.8866 34.0352C19.906 34.0352 18.9873 34.5145 18.4262 35.3186L20.8866 37.0352ZM35.8036 26.4745L34.5601 23.7443C33.691 24.1402 33.0623 24.9261 32.867 25.8609C32.6717 26.7957 32.9331 27.7677 33.571 28.4784L35.8036 26.4745ZM27.6511 9.68277L27.6509 9.74416L33.6508 9.76578L33.6511 9.70439L27.6511 9.68277ZM21.317 3.86816C24.9758 3.86816 27.6511 6.63247 27.6511 9.69358H33.6511C33.6511 3.0064 27.9683 -2.13184 21.317 -2.13184V3.86816ZM14.9829 9.69358C14.9829 6.63247 17.6581 3.86816 21.317 3.86816V-2.13184C14.6657 -2.13184 8.98289 3.0064 8.98289 9.69358H14.9829ZM14.9844 9.82103C14.9834 9.77869 14.9829 9.7362 14.9829 9.69358H8.98289C8.98289 9.78253 8.98392 9.87129 8.98597 9.95984L14.9844 9.82103ZM10.0155 12.6936C10.4899 12.6936 10.9488 12.7412 11.3881 12.8304L12.5823 6.95046C11.7515 6.78173 10.8925 6.69357 10.0155 6.69357V12.6936ZM3.68137 18.519C3.68137 15.4579 6.35662 12.6936 10.0155 12.6936V6.69357C3.36415 6.69357 -2.31863 11.8318 -2.31863 18.519H3.68137ZM7.21308 23.7443C5.04727 22.7579 3.68137 20.7341 3.68137 18.519H-2.31863C-2.31863 23.3111 0.633992 27.3408 4.72606 29.2046L7.21308 23.7443ZM6.75539 32.1817C6.75539 30.7922 7.28288 29.5026 8.20218 28.4784L3.73697 24.4706C1.89408 26.5239 0.755392 29.2188 0.755392 32.1817H6.75539ZM13.0895 38.0071C9.43065 38.0071 6.75539 35.2428 6.75539 32.1817H0.755392C0.755392 38.8689 6.43817 44.0071 13.0895 44.0071V38.0071ZM18.4262 35.3186C17.3202 36.9039 15.372 38.0071 13.0895 38.0071V44.0071C17.3246 44.0071 21.1138 41.9524 23.3469 38.7518L18.4262 35.3186ZM28.6837 38.0071C26.4012 38.0071 24.453 36.9039 23.3469 35.3186L18.4262 38.7518C20.6593 41.9524 24.4486 44.0071 28.6837 44.0071V38.0071ZM35.0178 32.1817C35.0178 35.2428 32.3425 38.0071 28.6837 38.0071V44.0071C35.335 44.0071 41.0178 38.8689 41.0178 32.1817H35.0178ZM33.571 28.4784C34.4903 29.5026 35.0178 30.7922 35.0178 32.1817H41.0178C41.0178 29.2188 39.8791 26.5239 38.0362 24.4706L33.571 28.4784ZM38.0918 18.519C38.0918 20.734 36.7259 22.7579 34.5601 23.7443L37.0471 29.2046C41.1391 27.3408 44.0918 23.3111 44.0918 18.519H38.0918ZM31.7577 12.6936C35.4165 12.6936 38.0918 15.4579 38.0918 18.519H44.0918C44.0918 11.8318 38.409 6.69357 31.7577 6.69357V12.6936ZM30.9839 12.7364C31.2365 12.7082 31.4946 12.6936 31.7577 12.6936V6.69357C31.2717 6.69357 30.7912 6.72064 30.3178 6.77351L30.9839 12.7364Z" fill="#3C7E5B" mask="url(#path-3-inside-1_76_223)"/>
<circle cx="20.8866" cy="22.1321" r="7.32541" stroke="#3C7E5B" stroke-width="3"/>
<path d="M20.8866 36.0386V54.7973" stroke="#3C7E5B" stroke-width="3" stroke-linecap="round"/>
</svg>
