<svg width="36" height="64" viewBox="0 0 36 64" fill="none" xmlns="http://www.w3.org/2000/svg">
<path d="M17.6809 9.6951L17.6809 2.25585" stroke="#3C7E5B" stroke-width="3" stroke-linecap="round"/>
<path d="M28.5731 12.3253L33.8335 7.06494" stroke="#3C7E5B" stroke-width="3" stroke-linecap="round"/>
<path d="M6.78894 12.3253L1.5286 7.06494" stroke="#3C7E5B" stroke-width="3" stroke-linecap="round"/>
<path d="M24.4997 48.9185C23.2808 50.4915 22.4998 52.4416 22.4998 54.5277V57.5412C22.4998 60.0265 20.4851 62.0412 17.9999 62.0412H16.5379C14.0526 62.0412 12.0379 60.0265 12.0379 57.5412V54.4179C12.0379 52.415 11.3201 50.5267 10.1596 48.9873C8.11784 46.279 6.05788 43.0087 4.51466 39.6917C2.96045 36.351 1.98755 33.0843 1.98755 30.3474C1.98755 21.9077 8.82922 15.0661 17.2689 15.0661C25.7085 15.0661 32.5502 21.9077 32.5502 30.3474C32.5502 33.0834 31.6189 36.353 30.1053 39.6814C28.6011 42.9892 26.5727 46.2436 24.4997 48.9185Z" stroke="#3C7E5B" stroke-width="3"/>
<path d="M13.3793 51.7211C15.6136 46.9125 16.9931 34.9928 13.3793 33.3608C8.86203 31.3207 10.1675 41.6667 17.3136 41.6667C19.935 41.6667 21.8765 40.1165 23.0949 38.4623C24.6477 36.3542 23.6472 32.3499 21.1676 33.1909C19.2699 33.8346 18.1026 38.1862 21.1023 51.7211" stroke="#3C7E5B" stroke-width="3" stroke-linecap="round"/>
</svg>
