<svg width="36" height="64" viewBox="0 0 36 64" fill="none" xmlns="http://www.w3.org/2000/svg">
<path d="M33.9472 17.4834L33.9472 17.543L33.9519 17.6025C34.0861 19.2884 33.6499 21.2661 32.743 23.4388C31.8415 25.5985 30.5163 27.8531 28.9895 30.057C25.9354 34.4656 22.1729 38.5318 19.6975 41.0355C18.8262 41.9167 17.459 41.909 16.596 41.0159C14.2038 38.5405 10.5905 34.5479 7.58506 30.1694C4.53202 25.7216 2.30782 21.1587 2.30782 17.4834C2.30782 8.69257 9.39745 1.57873 18.1275 1.57873C26.8575 1.57873 33.9472 8.69257 33.9472 17.4834Z" stroke="#3C7E5B" stroke-width="3"/>
<path d="M18.2586 7.50758C21.2302 7.50758 27.1732 10.4791 27.1732 18.4032" stroke="#3C7E5B" stroke-width="3" stroke-linecap="round" stroke-linejoin="round"/>
<path d="M27.7392 23.0728C27.7392 22.0959 26.9473 21.304 25.9704 21.304C24.9936 21.304 24.2017 22.0959 24.2017 23.0728C24.2017 24.0496 24.9936 24.8415 25.9704 24.8415C26.9473 24.8415 27.7392 24.0496 27.7392 23.0728Z" fill="#3C7E5B"/>
<path d="M17.7698 41.057C17.9685 40.8358 18.3151 40.8358 18.5138 41.057L22.3408 45.3181C22.6299 45.64 22.4015 46.1522 21.9688 46.1522H14.3147C13.8821 46.1522 13.6536 45.64 13.9427 45.3181L17.7698 41.057Z" stroke="#3C7E5B" stroke-width="3"/>
<path d="M18.7006 46.6499C17.9982 47.9685 17.5764 49.6468 18.6864 50.8749C19.3129 51.5681 20.0183 51.8522 20.593 52.5934C20.9591 53.0654 20.951 53.9606 20.8998 54.536C20.8368 55.2453 20.1631 55.9291 19.6166 56.2645C18.8225 56.752 17.9011 57.4329 17.6532 58.3806C17.3332 59.6043 18.3097 60.7516 18.4864 61.9879" stroke="#3C7E5B" stroke-width="3.5" stroke-linecap="round"/>
</svg>
