<svg width="50" height="46" viewBox="0 0 50 46" fill="none" xmlns="http://www.w3.org/2000/svg">
<mask id="path-1-inside-1_76_1708" fill="white">
<path fill-rule="evenodd" clip-rule="evenodd" d="M44.2621 32.4888C46.0194 29.4354 47.016 25.9457 47.016 22.2393C47.016 10.2359 36.5635 0.505249 23.6696 0.505249C10.7758 0.505249 0.323303 10.2359 0.323303 22.2393C0.323303 34.2428 10.7758 43.9734 23.6696 43.9734C28.251 43.9734 32.5242 42.7449 36.1298 40.6225L47.5164 45.7739C48.8767 46.4837 49.59 44.9303 49.3524 44.3755L44.2621 32.4888Z"/>
</mask>
<path d="M44.2621 32.4888L41.662 30.9924C41.1912 31.8104 41.1328 32.8022 41.5044 33.6698L44.2621 32.4888ZM36.1298 40.6225L37.3664 37.8892C36.4775 37.4871 35.4487 37.5423 34.6079 38.0372L36.1298 40.6225ZM47.5164 45.7739L48.9041 43.1142C48.8545 43.0883 48.8041 43.0637 48.753 43.0406L47.5164 45.7739ZM49.3524 44.3755L46.5947 45.5565L46.5947 45.5565L49.3524 44.3755ZM44.016 22.2393C44.016 25.3985 43.1685 28.3747 41.662 30.9924L46.8623 33.9852C48.8703 30.496 50.016 26.4929 50.016 22.2393H44.016ZM23.6696 3.50525C35.1124 3.50525 44.016 12.0914 44.016 22.2393H50.016C50.016 8.38052 38.0145 -2.49475 23.6696 -2.49475V3.50525ZM3.3233 22.2393C3.3233 12.0914 12.2269 3.50525 23.6696 3.50525V-2.49475C9.32476 -2.49475 -2.6767 8.38052 -2.6767 22.2393H3.3233ZM23.6696 40.9734C12.2269 40.9734 3.3233 32.3873 3.3233 22.2393H-2.6767C-2.6767 36.0982 9.32476 46.9734 23.6696 46.9734V40.9734ZM34.6079 38.0372C31.4596 39.8905 27.7112 40.9734 23.6696 40.9734V46.9734C28.7908 46.9734 33.5889 45.5994 37.6517 43.2078L34.6079 38.0372ZM48.753 43.0406L37.3664 37.8892L34.8932 43.3558L46.2799 48.5072L48.753 43.0406ZM46.5947 45.5565C46.2886 44.8418 46.4229 44.2924 46.4518 44.18C46.5032 43.9803 46.5971 43.7804 46.7632 43.588C46.9402 43.3831 47.2747 43.1081 47.7824 42.9994C48.3189 42.8845 48.7298 43.0232 48.9041 43.1142L46.1287 48.4337C46.9833 48.8795 47.9934 49.0902 49.0388 48.8664C50.0554 48.6487 50.8084 48.0837 51.3041 47.5098C51.7889 46.9485 52.1015 46.3006 52.2624 45.6758C52.4007 45.1383 52.5351 44.1867 52.1102 43.1946L46.5947 45.5565ZM41.5044 33.6698L46.5947 45.5565L52.1102 43.1946L47.0199 31.3078L41.5044 33.6698Z" fill="#3C7E5B" mask="url(#path-1-inside-1_76_1708)"/>
</svg>
