<svg width="59" height="35" viewBox="0 0 59 35" fill="none" xmlns="http://www.w3.org/2000/svg">
<path d="M40.6883 25.3406C40.5933 24.591 39.9557 24.0291 39.2002 24.0291H20.1334C19.3779 24.0291 18.7403 24.591 18.6453 25.3406C18.119 29.4942 14.5701 32.7067 10.2732 32.7067C5.61215 32.7067 1.83362 28.9282 1.83362 24.2672C1.83362 21.938 2.77516 19.8316 4.30198 18.303C4.88695 17.7174 4.88695 16.7686 4.30198 16.1829C2.77516 14.6543 1.83362 12.548 1.83362 10.2188C1.83362 5.55777 5.61215 1.77924 10.2732 1.77924C14.5701 1.77924 18.119 4.99181 18.6453 9.14539C18.7403 9.89492 19.3779 10.4568 20.1334 10.4568H39.2002C39.9557 10.4568 40.5933 9.89492 40.6883 9.14539C41.2146 4.99181 44.7635 1.77924 49.0604 1.77924C53.7215 1.77924 57.5 5.55777 57.5 10.2188C57.5 12.548 56.5585 14.6543 55.0316 16.1829C54.4467 16.7686 54.4467 17.7174 55.0316 18.303C56.5585 19.8316 57.5 21.938 57.5 24.2672C57.5 28.9282 53.7215 32.7067 49.0604 32.7067C44.7635 32.7067 41.2146 29.4942 40.6883 25.3406Z" stroke="#3C7E5B" stroke-width="3" stroke-linejoin="round"/>
</svg>
