<svg width="44" height="58" viewBox="0 0 44 58" fill="none" xmlns="http://www.w3.org/2000/svg">
<rect x="19.9857" y="41.6568" width="15.7234" height="15.8854" rx="2.5" transform="rotate(-30 19.9857 41.6568)" stroke="#3C7E5B" stroke-width="3"/>
<rect x="16.6095" y="35.8092" width="15.7234" height="22.7867" rx="2.5" transform="rotate(-30 16.6095 35.8092)" stroke="#3C7E5B" stroke-width="3"/>
<rect x="13.9167" y="27.8442" width="12.4225" height="8.33508" rx="2.5" transform="rotate(-30 13.9167 27.8442)" stroke="#3C7E5B" stroke-width="3"/>
<path d="M6.55547 12.5511C5.68303 11.04 6.57642 9.25747 8.09186 9.02864C10.4938 8.66595 12.2523 8.64707 13.6625 9.00471C15.0155 9.34784 16.1555 10.0656 17.2749 11.4097C17.3361 11.4832 17.3999 11.5755 17.4644 11.6872L23.5736 22.2687L15.0179 27.2084L6.55547 12.5511Z" stroke="#3C7E5B" stroke-width="3"/>
<path d="M7.41443 11.9781C8.27169 12.8005 12.1526 16.2892 16.575 13.7359" stroke="#3C7E5B" stroke-width="3" stroke-linecap="round"/>
</svg>
