<svg width="65" height="56" viewBox="0 0 65 56" fill="none" xmlns="http://www.w3.org/2000/svg">
<path d="M52.558 6.60344C53.8399 4.36099 56.6881 3.59787 58.9194 4.89896C61.1508 6.20006 61.9205 9.07267 60.6386 11.3151L41.4361 44.9052L33.3555 40.1935L52.558 6.60344Z" stroke="#3C7E5B" stroke-width="3"/>
<line y1="-1.5" x2="9.15835" y2="-1.5" transform="matrix(0.864053 0.503401 -0.496607 0.867976 49.5087 12.1421)" stroke="#3C7E5B" stroke-width="3"/>
<line y1="-1.5" x2="9.15835" y2="-1.5" transform="matrix(0.864053 0.503401 -0.496607 0.867976 46.2937 17.7614)" stroke="#3C7E5B" stroke-width="3"/>
<path d="M32.9044 40.8732L31.9864 50.152C31.9012 51.0141 32.8677 51.5771 33.5634 51.0706L41.0465 45.6226" stroke="#3C7E5B" stroke-width="3"/>
<path d="M2 51.5473C6.05426 48.212 16.0729 45.205 16.0729 49.7982C16.0729 50.4397 15.4999 52.8746 17.9254 52.9895C18.0449 52.9951 18.1649 52.9795 18.2812 52.9517C22.8939 51.8518 29.0141 51.3117 32.5341 51.3117" stroke="#3C7E5B" stroke-width="3" stroke-linecap="round"/>
</svg>
