<svg width="33" height="34" viewBox="0 0 33 34" fill="none" xmlns="http://www.w3.org/2000/svg">
<circle cx="16.5" cy="17.0648" r="15" stroke="#E2E9BA" stroke-width="3"/>
<mask id="path-2-inside-1_254_2045" fill="white">
<path fill-rule="evenodd" clip-rule="evenodd" d="M10.8768 32.5818C12.6318 33.218 14.5254 33.5648 16.5 33.5648C18.2405 33.5648 19.9181 33.2953 21.4933 32.7958C24.5227 28.6824 26.4 22.9688 26.4 16.6523C26.4 10.872 24.8279 5.59669 22.2396 1.59049C20.4521 0.927217 18.5183 0.564819 16.5 0.564819C14.5253 0.564819 12.6317 0.911699 10.8767 1.54785C8.21924 5.64839 6.60001 11.0918 6.60001 17.0648C6.60001 23.0378 8.21928 28.4813 10.8768 32.5818Z"/>
</mask>
<path d="M10.8768 32.5818L8.35924 34.2134L8.9072 35.0589L9.85446 35.4023L10.8768 32.5818ZM21.4933 32.7958L22.4002 35.6554L23.3303 35.3605L23.9089 34.5748L21.4933 32.7958ZM22.2396 1.59049L24.7594 -0.0375283L24.2182 -0.8752L23.2832 -1.22213L22.2396 1.59049ZM10.8767 1.54785L9.85434 -1.27258L8.90709 -0.929229L8.35913 -0.0836989L10.8767 1.54785ZM16.5 30.5648C14.879 30.5648 13.3311 30.2804 11.8991 29.7614L9.85446 35.4023C11.9325 36.1555 14.1718 36.5648 16.5 36.5648V30.5648ZM20.5864 29.9361C19.3011 30.3438 17.9292 30.5648 16.5 30.5648V36.5648C18.5519 36.5648 20.5352 36.2469 22.4002 35.6554L20.5864 29.9361ZM23.9089 34.5748C27.3579 29.8916 29.4 23.538 29.4 16.6523H23.4C23.4 22.3996 21.6874 27.4732 19.0777 31.0168L23.9089 34.5748ZM29.4 16.6523C29.4 10.3458 27.6879 4.4952 24.7594 -0.0375283L19.7198 3.2185C21.9679 6.69818 23.4 11.3983 23.4 16.6523H29.4ZM16.5 3.56482C18.1568 3.56482 19.7374 3.86191 21.196 4.40311L23.2832 -1.22213C21.1667 -2.00748 18.8799 -2.43518 16.5 -2.43518V3.56482ZM11.899 4.36828C13.331 3.84922 14.879 3.56482 16.5 3.56482V-2.43518C14.1717 -2.43518 11.9324 -2.02582 9.85434 -1.27258L11.899 4.36828ZM8.35913 -0.0836989C5.35729 4.54827 3.60001 10.5696 3.60001 17.0648H9.60001C9.60001 11.6141 11.0812 6.74851 13.3942 3.17939L8.35913 -0.0836989ZM3.60001 17.0648C3.60001 23.56 5.35733 29.5814 8.35924 34.2134L13.3943 30.9503C11.0812 27.3811 9.60001 22.5155 9.60001 17.0648H3.60001Z" fill="#E2E9BA" mask="url(#path-2-inside-1_254_2045)"/>
<mask id="path-4-inside-2_254_2045" fill="white">
<path fill-rule="evenodd" clip-rule="evenodd" d="M0.98299 11.4416C0.346866 13.1966 -3.46429e-07 15.0902 -4.32743e-07 17.0648C-5.08824e-07 18.8054 0.2695 20.483 0.769046 22.0581C4.88241 25.0875 10.596 26.9648 16.9126 26.9648C22.6928 26.9648 27.9681 25.3927 31.9743 22.8044C32.6376 21.0169 33 19.0832 33 17.0648C33 15.0902 32.6531 13.1965 32.017 11.4415C27.9164 8.78406 22.473 7.16482 16.5001 7.16482C10.5271 7.16482 5.08355 8.7841 0.98299 11.4416Z"/>
</mask>
<path d="M0.98299 11.4416L-0.648579 8.92406L-1.4941 9.47203L-1.83745 10.4193L0.98299 11.4416ZM0.769046 22.0581L-2.0906 22.965L-1.79563 23.8951L-1.00996 24.4738L0.769046 22.0581ZM31.9743 22.8044L33.6023 25.3242L34.44 24.783L34.787 23.848L31.9743 22.8044ZM32.017 11.4415L34.8374 10.4192L34.494 9.47191L33.6485 8.92394L32.017 11.4415ZM3 17.0648C3 15.4438 3.28439 13.8959 3.80343 12.4639L-1.83745 10.4193C-2.59065 12.4973 -3 14.7366 -3 17.0648L3 17.0648ZM3.62869 21.1513C3.22106 19.8659 3 18.494 3 17.0648L-3 17.0648C-3 19.1167 -2.68206 21.1 -2.0906 22.965L3.62869 21.1513ZM-1.00996 24.4738C3.67319 27.9227 10.0268 29.9648 16.9126 29.9648L16.9126 23.9648C11.1653 23.9648 6.09162 22.2522 2.54805 19.6425L-1.00996 24.4738ZM16.9126 29.9648C23.219 29.9648 29.0696 28.2528 33.6023 25.3242L30.3463 20.2846C26.8666 22.5327 22.1665 23.9648 16.9126 23.9648L16.9126 29.9648ZM30 17.0648C30 18.7216 29.7029 20.3022 29.1617 21.7608L34.787 23.848C35.5723 21.7315 36 19.4447 36 17.0648L30 17.0648ZM29.1965 12.4638C29.7156 13.8958 30 15.4438 30 17.0648L36 17.0648C36 14.7365 35.5906 12.4972 34.8374 10.4192L29.1965 12.4638ZM33.6485 8.92394C29.0166 5.92211 22.9952 4.16483 16.5001 4.16482L16.5001 10.1648C21.9507 10.1648 26.8163 11.646 30.3854 13.959L33.6485 8.92394ZM16.5001 4.16482C10.0048 4.16482 3.98341 5.92215 -0.648579 8.92406L2.61456 13.9591C6.18369 11.646 11.0493 10.1648 16.5001 10.1648L16.5001 4.16482Z" fill="#E2E9BA" mask="url(#path-4-inside-2_254_2045)"/>
<line x1="15" y1="33.5648" x2="15" y2="0.564819" stroke="#E2E9BA" stroke-width="3"/>
<line y1="16.3898" x2="33" y2="16.3898" stroke="#E2E9BA" stroke-width="3"/>
</svg>
