<svg width="64" height="42" viewBox="0 0 64 42" fill="none" xmlns="http://www.w3.org/2000/svg">
<path d="M31.7441 6.16208V34.4846M31.7441 6.16208C31.7441 5.86302 31.6367 5.5702 31.43 5.35413C25.4542 -0.890592 13.0301 2.55632 6.83866 5.36982C6.40603 5.56642 6.13766 6.00019 6.13766 6.47539V34.3132C6.13766 34.9427 6.81488 35.3426 7.37568 35.0568C19.5996 28.8257 28.2786 31.672 31.454 34.6079C31.5626 34.7083 31.7441 34.6327 31.7441 34.4846M31.7441 6.16208C31.7441 5.86302 31.8515 5.5702 32.0583 5.35413C38.034 -0.890592 50.4581 2.55632 56.6496 5.36982C57.0822 5.56642 57.3505 6.00019 57.3505 6.47539V34.3132C57.3505 34.9427 56.6733 35.3426 56.1125 35.0568C43.8886 28.8257 35.2096 31.672 32.0343 34.6079C31.9256 34.7083 31.7441 34.6327 31.7441 34.4846" stroke="#3C7E5B" stroke-width="3" stroke-linecap="round"/>
<path d="M5.72452 10.109H3.09445C2.26602 10.109 1.59445 10.7806 1.59445 11.609V38.3455C1.59445 39.1739 2.26602 39.8455 3.09445 39.8455H60.3935C61.2219 39.8455 61.8935 39.1739 61.8935 38.3455V11.609C61.8935 10.7806 61.2219 10.109 60.3935 10.109H57.7634" stroke="#3C7E5B" stroke-width="3" stroke-linecap="round"/>
<path d="M6.96362 35.5308H57.3505" stroke="#3C7E5B" stroke-width="3" stroke-linecap="round"/>
</svg>
