<svg width="57" height="62" viewBox="0 0 57 62" fill="none" xmlns="http://www.w3.org/2000/svg">
<mask id="path-1-inside-1_76_308" fill="white">
<path fill-rule="evenodd" clip-rule="evenodd" d="M9.27324 0.716675C8.16867 0.716675 7.27324 1.6121 7.27324 2.71667V16.4723C3.07968 18.3899 0.165955 22.622 0.165955 27.5345V56.0251C0.165955 58.5665 2.22619 60.6268 4.76762 60.6268H19.8794C22.4209 60.6268 24.4811 58.5665 24.4811 56.0251V27.5345C24.4811 22.5269 21.4535 18.2264 17.1289 16.3636V2.71667C17.1289 1.61211 16.2335 0.716675 15.1289 0.716675H9.27324Z"/>
</mask>
<path d="M7.27324 16.4723L8.52082 19.2006C9.58847 18.7124 10.2732 17.6463 10.2732 16.4723H7.27324ZM17.1289 16.3636H14.1289C14.1289 17.5617 14.8418 18.6449 15.9421 19.1188L17.1289 16.3636ZM10.2732 2.71667C10.2732 3.26896 9.82553 3.71667 9.27324 3.71667V-2.28333C6.51182 -2.28333 4.27324 -0.0447524 4.27324 2.71667H10.2732ZM10.2732 16.4723V2.71667H4.27324V16.4723H10.2732ZM3.16595 27.5345C3.16595 23.8388 5.35539 20.648 8.52082 19.2006L6.02566 13.744C0.803976 16.1318 -2.83405 21.4051 -2.83405 27.5345H3.16595ZM3.16595 56.0251V27.5345H-2.83405V56.0251H3.16595ZM4.76762 57.6268C3.88305 57.6268 3.16595 56.9097 3.16595 56.0251H-2.83405C-2.83405 60.2234 0.569329 63.6268 4.76762 63.6268V57.6268ZM19.8794 57.6268H4.76762V63.6268H19.8794V57.6268ZM21.4811 56.0251C21.4811 56.9097 20.764 57.6268 19.8794 57.6268V63.6268C24.0777 63.6268 27.4811 60.2234 27.4811 56.0251H21.4811ZM21.4811 27.5345V56.0251H27.4811V27.5345H21.4811ZM15.9421 19.1188C19.2057 20.5246 21.4811 23.7672 21.4811 27.5345H27.4811C27.4811 21.2865 23.7013 15.9281 18.3157 13.6083L15.9421 19.1188ZM14.1289 2.71667V16.3636H20.1289V2.71667H14.1289ZM15.1289 3.71667C14.5767 3.71667 14.1289 3.26896 14.1289 2.71667H20.1289C20.1289 -0.0447539 17.8904 -2.28333 15.1289 -2.28333V3.71667ZM9.27324 3.71667H15.1289V-2.28333H9.27324V3.71667Z" fill="#3C7E5B" mask="url(#path-1-inside-1_76_308)"/>
<line x1="9.21545" y1="8.16113" x2="15.5031" y2="8.16113" stroke="#3C7E5B" stroke-width="3" stroke-linejoin="round"/>
<line x1="1.32406" y1="29.0066" x2="23.3944" y2="29.0066" stroke="#3C7E5B" stroke-width="3" stroke-linejoin="round"/>
<line x1="1.32406" y1="46.3572" x2="23.3944" y2="46.3571" stroke="#3C7E5B" stroke-width="3" stroke-linejoin="round"/>
<path d="M47.083 40.2519C46.5258 40.4856 46.1631 41.0309 46.1631 41.6352V54.0926C46.1631 54.8376 46.71 55.4698 47.4473 55.577C49.2945 55.8455 50.7702 56.2785 51.7385 56.7656C52.2242 57.0098 52.5135 57.2336 52.6636 57.3974C52.6909 57.4272 52.7111 57.452 52.7258 57.472C52.687 57.5256 52.6101 57.6125 52.462 57.7306C52.0982 58.0207 51.4794 58.348 50.5814 58.651C48.8007 59.2517 46.2446 59.6495 43.3519 59.6495C40.4592 59.6495 37.903 59.2517 36.1223 58.651C35.2243 58.348 34.6055 58.0207 34.2417 57.7306C34.0935 57.6124 34.0166 57.5255 33.9778 57.4719C33.996 57.4472 34.0225 57.4152 34.0605 57.3757C34.2347 57.1945 34.5628 56.9549 35.0999 56.6997C36.1692 56.1917 37.7827 55.7544 39.7722 55.5075C40.5234 55.4143 41.0874 54.7759 41.0874 54.0189V41.8485C41.0874 41.2164 40.6912 40.6521 40.0967 40.4376C35.1547 38.6538 31.2521 32.7612 31.2521 25.4348V23.4684C31.2521 22.78 31.7031 22.2594 32.28 22.1503C34.5947 21.7127 38.5813 21.1313 43.3467 21.1477C48.104 21.1642 52.0863 21.7346 54.4081 22.1618C54.9944 22.2696 55.4516 22.7961 55.4516 23.4893V25.4348C55.4516 32.517 51.799 38.2742 47.083 40.2519ZM52.7632 57.5339C52.7631 57.5338 52.7621 57.5317 52.7608 57.5274C52.7628 57.5317 52.7634 57.5339 52.7632 57.5339ZM52.76 57.4156C52.7613 57.4107 52.7624 57.4083 52.7626 57.4083C52.7628 57.4083 52.7622 57.4108 52.76 57.4156ZM33.9411 57.4083C33.9413 57.4083 33.9424 57.4107 33.9437 57.4156C33.9415 57.4108 33.9409 57.4083 33.9411 57.4083ZM33.9431 57.5271C33.9417 57.5319 33.9406 57.5343 33.9404 57.5343C33.9402 57.5343 33.9409 57.5319 33.9431 57.5271Z" stroke="#3C7E5B" stroke-width="3" stroke-linejoin="round"/>
<ellipse cx="43.5558" cy="25.7263" rx="9.0824" ry="1.27325" fill="#3C7E5B"/>
</svg>
