<svg width="47" height="56" viewBox="0 0 47 56" fill="none" xmlns="http://www.w3.org/2000/svg">
<path d="M24.105 52.925C23.7351 52.784 23.3246 52.795 22.9628 52.9554C20.3986 54.0923 17.9992 54.2321 15.7952 53.648C13.5704 53.0585 11.4495 51.7044 9.52842 49.7058C5.66821 45.6896 2.78376 39.2372 1.6738 32.1048C0.771179 26.3046 3.4762 20.7636 7.60222 18.1386C9.643 16.8402 12.0185 16.2589 14.5089 16.6742C17.0024 17.0901 19.7467 18.529 22.4615 21.5115C22.7458 21.8238 23.1485 22.0018 23.5708 22.0018C23.993 22.0018 24.3958 21.8238 24.68 21.5115C27.1529 18.7949 29.7232 17.4107 32.1147 16.9645C34.504 16.5187 36.825 16.9873 38.8577 18.1652C42.9355 20.528 45.896 25.7999 45.457 32.1814C44.4409 39.6001 41.6134 45.8511 37.7865 49.6856C34.0099 53.4696 29.2944 54.9028 24.105 52.925Z" stroke="#3C7E5B" stroke-width="3" stroke-linejoin="round"/>
<path d="M23.4115 21.6609V5.17558" stroke="#3C7E5B" stroke-width="3" stroke-linecap="round"/>
<path d="M38.5052 4.79281L39.2343 3.48597C39.8266 3.81544 40.1258 4.4984 39.9648 5.15354L38.5052 4.79281ZM38.5052 4.79281C39.9648 5.15354 39.9647 5.15398 39.9646 5.15443L39.9644 5.15543L39.9638 5.15774L39.9623 5.16357L39.9582 5.18003C39.9548 5.19312 39.9503 5.21039 39.9447 5.23161C39.9334 5.27405 39.9173 5.33239 39.8963 5.40476C39.8544 5.54934 39.7924 5.75088 39.7081 5.99423C39.5404 6.47855 39.2803 7.14098 38.9085 7.85518C38.1889 9.23753 36.9332 11.0403 34.9036 11.9177C32.8739 12.7951 30.69 12.4791 29.1812 12.06C28.4016 11.8435 27.7364 11.5811 27.2653 11.3729C27.0285 11.2683 26.8378 11.1761 26.7027 11.108C26.6351 11.0739 26.5812 11.0458 26.5422 11.0251C26.5227 11.0148 26.5069 11.0063 26.495 10.9998L26.48 10.9916L26.4747 10.9887L26.4727 10.9875L26.4718 10.987C26.4713 10.9868 26.4709 10.9866 27.2 9.67974M38.5052 4.79281C39.2343 3.48597 39.2339 3.48575 39.2335 3.48552L39.2326 3.48502L39.2305 3.48386L39.2252 3.48095L39.2102 3.47276C39.1983 3.46628 39.1825 3.45777 39.163 3.44742C39.124 3.42672 39.0701 3.39861 39.0025 3.36454C38.8674 3.29649 38.6767 3.20423 38.4399 3.09963C37.9688 2.89145 37.3036 2.629 36.524 2.41251C35.0152 1.99347 32.8313 1.67748 30.8017 2.55486C28.772 3.43223 27.5163 5.23503 26.7967 6.61737C26.4249 7.33158 26.1648 7.994 25.9971 8.47833C25.9129 8.72168 25.8508 8.92321 25.8089 9.06779C25.7879 9.14016 25.7719 9.1985 25.7605 9.24094C25.7549 9.26217 25.7504 9.27944 25.747 9.29252L25.7429 9.30899L25.7414 9.31482L25.7408 9.31712L25.7406 9.31812C25.7405 9.31858 25.7404 9.31902 27.2 9.67974M27.2 9.67974L26.4709 10.9866C25.8786 10.6571 25.5794 9.97416 25.7404 9.31902L27.2 9.67974Z" stroke="#3C7E5B" stroke-width="3" stroke-linejoin="round"/>
<path d="M35.6168 23.9618C37.7957 26.1262 40.8461 32.7815 35.6168 42.0882" stroke="#3C7E5B" stroke-width="3" stroke-linecap="round"/>
<ellipse cx="1.93881" cy="1.92586" rx="1.93881" ry="1.92586" transform="matrix(1 8.6839e-08 8.80105e-08 -1 30.9138 48.175)" fill="#3C7E5B"/>
</svg>
