<svg width="35" height="44" viewBox="0 0 35 44" fill="none" xmlns="http://www.w3.org/2000/svg">
<path fill-rule="evenodd" clip-rule="evenodd" d="M17.0716 29.6674C24.7864 29.6674 31.0406 23.2295 31.0406 15.2878C31.0406 7.34611 24.7864 0.908112 17.0716 0.908112C9.35668 0.908112 3.10254 7.34611 3.10254 15.2878C3.10254 23.2295 9.35668 29.6674 17.0716 29.6674ZM17.0716 26.774C23.2341 26.774 28.2297 21.6315 28.2297 15.2878C28.2297 8.94416 23.2341 3.80161 17.0716 3.80161C10.9091 3.80161 5.91341 8.94416 5.91341 15.2878C5.91341 21.6315 10.9091 26.774 17.0716 26.774Z" fill="#E2E9BA"/>
<ellipse cx="17.0716" cy="15.2878" rx="8.90355" ry="9.1653" fill="#E2E9BA"/>
<path d="M16.1179 10.4955C16.4121 9.56348 17.731 9.56348 18.0252 10.4955L18.5551 12.1743C18.6864 12.5904 19.0724 12.8733 19.5087 12.8733H21.2837C22.2454 12.8733 22.6528 14.0981 21.8826 14.6741L20.3972 15.785C20.0569 16.0396 19.9146 16.4815 20.0425 16.8868L20.5981 18.6468C20.8905 19.5732 19.8235 20.3304 19.0455 19.7486L17.6705 18.7202C17.3154 18.4546 16.8278 18.4546 16.4726 18.7202L15.0976 19.7486C14.3196 20.3304 13.2526 19.5732 13.545 18.6468L14.1006 16.8868C14.2285 16.4815 14.0862 16.0396 13.7459 15.785L12.2605 14.6741C11.4904 14.0981 11.8977 12.8733 12.8594 12.8733H14.6344C15.0707 12.8733 15.4567 12.5904 15.588 12.1743L16.1179 10.4955Z" fill="white"/>
<path d="M16.4593 29.3633L8.19751 24.4531L0.492166 38.1915L0.627542 38.272L7.25224 35.9589L8.61859 43.0212L8.75399 43.1017L16.4593 29.3633Z" fill="#E2E9BA"/>
<path d="M18.5415 29.3633L26.8033 24.4531L34.5086 38.1915L34.3733 38.272L27.7486 35.9589L26.3822 43.0212L26.2468 43.1017L18.5415 29.3633Z" fill="#E2E9BA"/>
</svg>
