<svg width="54" height="51" viewBox="0 0 54 51" fill="none" xmlns="http://www.w3.org/2000/svg">
<path d="M52.1084 17.3289L52.1058 17.3907L52.1084 17.4524C52.1111 17.5186 52.1125 17.5851 52.1125 17.6521V40.0368C52.1125 40.1992 52.1044 40.3593 52.0886 40.5167L52.0744 40.658L52.087 40.7994C52.1039 40.9885 52.1125 41.1797 52.1125 41.3729C52.1125 45.503 47.9828 49.2973 42.2854 49.2973C36.5881 49.2973 32.4584 45.503 32.4584 41.3729C32.4584 39.6078 33.4221 37.8544 35.143 36.3954C36.8584 34.9411 39.203 33.8974 41.6158 33.5628L42.9098 33.3834V32.077V20.8729V19.3729H41.4098H22.3708H20.8708V20.8729V40.0368C20.8708 40.1992 20.8627 40.3593 20.847 40.5167L20.8328 40.658L20.8454 40.7993C20.8623 40.9885 20.8708 41.1797 20.8708 41.3729C20.8708 43.457 19.8278 45.4265 18.1392 46.9101C16.4466 48.3973 14.2097 49.2973 12.0438 49.2973C6.34645 49.2973 2.2168 45.503 2.2168 41.3729C2.2168 37.6567 5.52591 34.235 10.3742 33.5628L11.6682 33.3834V32.077V17.6521C11.6682 17.5851 11.6696 17.5185 11.6723 17.4524L11.6748 17.3907L11.6723 17.3289C11.6696 17.2628 11.6682 17.1963 11.6682 17.1293V7.11512C11.6682 4.49763 13.7901 2.37573 16.4076 2.37573H47.3731C49.9906 2.37573 52.1125 4.49763 52.1125 7.11512V17.1293C52.1125 17.1963 52.1111 17.2628 52.1084 17.3289Z" stroke="#3C7E5B" stroke-width="3"/>
</svg>
