<svg width="27" height="33" viewBox="0 0 27 33" fill="none" xmlns="http://www.w3.org/2000/svg">
<path fill-rule="evenodd" clip-rule="evenodd" d="M25.0922 13.6341C25.0922 7.89844 21.0445 3.10818 15.6497 1.96397C15.3825 0.837777 14.3703 0 13.1623 0C11.9544 0 10.9422 0.83778 10.6749 1.96398C5.28023 3.1082 1.23255 7.89846 1.23255 13.6341V23.791L0.47994 24.6764C-0.624136 25.9754 0.299051 27.9717 2.00385 27.9717H24.5313C26.2361 27.9717 27.1593 25.9754 26.0552 24.6764L25.0922 23.5434V13.6341Z" fill="#E2E9BA"/>
<path fill-rule="evenodd" clip-rule="evenodd" d="M9.01025 28.9724C9.44561 30.925 11.1393 32.3809 13.1623 32.3809C15.1854 32.3809 16.8791 30.925 17.3144 28.9724H9.01025Z" fill="#E2E9BA"/>
</svg>
