<svg width="59" height="35" viewBox="0 0 59 35" fill="none" xmlns="http://www.w3.org/2000/svg">
<path d="M53.7989 14.5566C55.4125 16.2228 55.4125 18.7429 53.7989 20.4091C51.4194 22.8663 47.9374 26.0295 43.7508 28.5709C39.5593 31.1153 34.7463 32.9853 29.6756 32.9853C24.6049 32.9853 19.7919 31.1153 15.6004 28.5709C11.4139 26.0295 7.93185 22.8663 5.55229 20.4091C3.9387 18.7429 3.9387 16.2228 5.55229 14.5566C7.93186 12.0995 11.4139 8.93623 15.6004 6.39484C19.7919 3.85045 24.6049 1.98041 29.6756 1.98041C34.7463 1.98041 39.5593 3.85045 43.7508 6.39484C47.9374 8.93623 51.4194 12.0995 53.7989 14.5566Z" stroke="#3C7E5B" stroke-width="3"/>
<circle cx="29.6756" cy="15.2088" r="12.0715" stroke="#3C7E5B" stroke-width="3"/>
<circle cx="29.6756" cy="15.2088" r="5.34443" fill="#3C7E5B"/>
<circle cx="34.451" cy="10.3815" r="4.3615" fill="white" stroke="#3C7E5B" stroke-width="3"/>
</svg>
