<svg width="70" height="75" viewBox="0 0 70 75" fill="none" xmlns="http://www.w3.org/2000/svg">
<path d="M27.5687 2.75673C10.3032 0.394492 3.93625 14.0232 2.62463 21.488C-0.926329 36.6741 11.4453 45.1495 19.9869 48.129C28.5284 51.1085 29.6286 45.8024 28.5284 43.3233C27.7606 41.5932 26.3562 39.8566 27.5687 37.6526C28.7051 35.5866 31.9194 35.6342 33.6149 36.0186C45.9761 37.7102 48.4906 27.7528 48.2027 22.5626C48.2666 17.4686 44.4588 5.06763 27.5687 2.75673Z" stroke="#3C7E5B" stroke-width="3" stroke-linecap="round"/>
<path d="M18.9996 17.1622C18.9996 18.9259 17.5726 20.3518 15.8169 20.3518C14.0613 20.3518 12.6342 18.9259 12.6342 17.1622C12.6342 15.3986 14.0613 13.9726 15.8169 13.9726C17.5726 13.9726 18.9996 15.3986 18.9996 17.1622Z" stroke="#3C7E5B" stroke-width="3"/>
<path d="M29.7516 12.4726C29.7516 14.2363 28.3246 15.6622 26.5689 15.6622C24.8133 15.6622 23.3863 14.2363 23.3863 12.4726C23.3863 10.7089 24.8133 9.283 26.5689 9.283C28.3246 9.283 29.7516 10.7089 29.7516 12.4726Z" stroke="#3C7E5B" stroke-width="3"/>
<path d="M40.504 18.393C40.504 20.1566 39.077 21.5826 37.3213 21.5826C35.5657 21.5826 34.1386 20.1566 34.1386 18.393C34.1386 16.6293 35.5657 15.2034 37.3213 15.2034C39.077 15.2034 40.504 16.6293 40.504 18.393Z" stroke="#3C7E5B" stroke-width="3"/>
<path d="M15.5286 28.381C15.5286 30.1446 14.1016 31.5706 12.346 31.5706C10.5903 31.5706 9.1633 30.1446 9.1633 28.381C9.1633 26.6173 10.5903 25.1914 12.346 25.1914C14.1016 25.1914 15.5286 26.6173 15.5286 28.381Z" stroke="#3C7E5B" stroke-width="3"/>
<path d="M57.2386 19.9672L62.9642 21.5994L55.4865 47.9289C55.4332 48.1167 55.3643 48.2997 55.2804 48.476L51.5419 56.3357C50.8159 57.8623 48.5123 57.2056 48.6971 55.5248L49.6487 46.8705C49.67 46.6764 49.7076 46.4845 49.7609 46.2967L57.2386 19.9672Z" stroke="#3C7E5B" stroke-width="3"/>
<path d="M58.5702 11.3365C55.2452 13.9171 56.1057 17.247 57.1418 18.9388C57.3127 19.218 57.5943 19.4042 57.9089 19.4939L62.7068 20.862C63.0521 20.9605 63.4258 20.9374 63.7376 20.7596C68.1926 18.2195 67.667 11.4166 66.2566 6.75407C65.9039 5.58823 64.3317 5.46396 63.5699 6.41298C62.3998 7.87091 60.7112 9.67481 58.5702 11.3365Z" stroke="#3C7E5B" stroke-width="3" stroke-linecap="round"/>
<line y1="-1.25" x2="6.61574" y2="-1.25" transform="matrix(0.961716 0.274049 -0.2733 0.961929 55.4821 26.2643)" stroke="#3C7E5B" stroke-width="2.5"/>
</svg>
