<svg width="26" height="36" viewBox="0 0 26 36" fill="none" xmlns="http://www.w3.org/2000/svg">
<path d="M0 18.1165C0 15.3551 2.23858 13.1165 5 13.1165H21C23.7614 13.1165 26 15.3551 26 18.1165V30.5303C26 33.2917 23.7614 35.5303 21 35.5303H5C2.23858 35.5303 0 33.2917 0 30.5303V18.1165Z" fill="#E2E9BA"/>
<path d="M7.3793 8.18551C7.3793 5.08129 9.89577 2.56482 13 2.56482C16.1042 2.56482 18.6207 5.08129 18.6207 8.18551V27.9096C18.6207 31.0139 16.1042 33.5303 13 33.5303C9.89577 33.5303 7.3793 31.0139 7.3793 27.9096V8.18551Z" stroke="#E2E9BA" stroke-width="4"/>
<path d="M16.1379 22.5303C16.1379 24.2634 14.733 25.6683 13 25.6683C11.267 25.6683 9.86206 24.2634 9.86206 22.5303C9.86206 20.7973 11.267 19.3924 13 19.3924C14.733 19.3924 16.1379 20.7973 16.1379 22.5303Z" fill="white"/>
<path d="M11.7061 25.4093C11.8556 25.0249 12.2257 24.7717 12.6381 24.7717H13.3619C13.7743 24.7717 14.1444 25.0249 14.2939 25.4093L15.6081 28.7886C15.863 29.4441 15.3794 30.151 14.6761 30.151H11.3239C10.6205 30.151 10.137 29.4441 10.3919 28.7886L11.7061 25.4093Z" fill="white"/>
</svg>
