<svg width="51" height="58" viewBox="0 0 51 58" fill="none" xmlns="http://www.w3.org/2000/svg">
<rect x="5.30145" y="25.8413" width="40.3438" height="30.4832" rx="2.5" stroke="#3C7E5B" stroke-width="3"/>
<rect x="2.38541" y="17.2585" width="46.1759" height="8.34251" rx="2.5" stroke="#3C7E5B" stroke-width="3"/>
<path d="M19.695 5.64383C20.2489 5.96365 21.0539 6.82928 21.9976 8.19327C22.8996 9.49686 23.8 11.0625 24.5868 12.5451C25.3316 13.9482 24.4083 15.5474 22.8208 15.604C21.1434 15.6638 19.3373 15.6668 17.7574 15.5376C16.1043 15.4023 14.9521 15.1379 14.3982 14.8181C11.8648 13.3555 10.9968 10.116 12.4594 7.58259C13.9221 5.04918 17.1616 4.18117 19.695 5.64383Z" stroke="#3C7E5B" stroke-width="3"/>
<path d="M31.0187 5.64383C30.4648 5.96365 29.6597 6.82928 28.716 8.19327C27.8141 9.49686 26.9137 11.0625 26.1268 12.5451C25.3821 13.9482 26.3054 15.5474 27.8929 15.604C29.5703 15.6638 31.3764 15.6668 32.9563 15.5376C34.6094 15.4023 35.7615 15.1379 36.3155 14.8181C38.8489 13.3555 39.7169 10.116 38.2542 7.58259C36.7916 5.04918 33.5521 4.18117 31.0187 5.64383Z" stroke="#3C7E5B" stroke-width="3"/>
<line x1="25.8347" y1="14.4203" x2="25.8347" y2="57.8245" stroke="#3C7E5B" stroke-width="3"/>
</svg>
