<svg width="57" height="54" viewBox="0 0 57 54" fill="none" xmlns="http://www.w3.org/2000/svg">
<path d="M5.90276 5.80815C3.05967 8.65123 3.05967 13.2608 5.90276 16.1039L6.48262 16.6837C6.87314 17.0743 7.50631 17.0743 7.89683 16.6837L16.7783 7.80222C17.1689 7.41169 17.1689 6.77853 16.7783 6.38801L16.1985 5.80815C13.3554 2.96506 8.74585 2.96506 5.90276 5.80815Z" stroke="#3C7E5B" stroke-width="3"/>
<path d="M51.0698 5.80815C53.9129 8.65123 53.9129 13.2608 51.0698 16.1039L50.4899 16.6837C50.0994 17.0743 49.4663 17.0743 49.0757 16.6837L40.1942 7.80222C39.8037 7.41169 39.8037 6.77853 40.1942 6.38801L40.7741 5.80815C43.6172 2.96506 48.2267 2.96506 51.0698 5.80815Z" stroke="#3C7E5B" stroke-width="3"/>
<circle cx="28.4481" cy="30.1254" r="19.638" stroke="#3C7E5B" stroke-width="3"/>
<circle cx="28.4481" cy="30.1254" r="14.6644" stroke="#3C7E5B" stroke-width="3"/>
<circle cx="28.0336" cy="30.5399" r="3.31577" fill="#3C7E5B"/>
<path d="M27.4765 31.0335L32.9102 34.7573" stroke="#3C7E5B" stroke-width="3" stroke-linecap="round"/>
<path d="M33.7735 22.2504L27.4765 30.4263" stroke="#3C7E5B" stroke-width="3" stroke-linecap="round"/>
<path d="M27.6192 10.6452L27.6192 2.35582" stroke="#3C7E5B" stroke-width="3" stroke-linecap="round"/>
<path d="M11.4548 52.1513L17.3163 46.2898" stroke="#3C7E5B" stroke-width="3" stroke-linecap="round"/>
<path d="M45.5003 52.1513L39.6388 46.2898" stroke="#3C7E5B" stroke-width="3" stroke-linecap="round"/>
<path d="M23.4744 2.35582L31.7639 2.35582" stroke="#3C7E5B" stroke-width="3" stroke-linecap="round"/>
</svg>
