<svg width="59" height="60" viewBox="0 0 59 60" fill="none" xmlns="http://www.w3.org/2000/svg">
<path d="M23.5227 58.429C39.0574 58.429 44.596 47.2882 44.596 33.5453L44.596 30.2333C44.596 28.4351 43.6379 26.7586 42.0319 25.9498C29.5143 19.6457 16.8458 19.229 4.80465 25.9195C3.31196 26.7489 2.44937 28.3581 2.44937 30.0658L2.44937 33.5453C2.44937 47.2882 9.41332 58.429 23.5227 58.429Z" fill="white" stroke="#3C7E5B" stroke-width="3"/>
<path d="M25.4869 2.332C26.3112 4.21371 27.0572 8.30769 23.4472 9.63C19.8371 10.9523 20.6839 14.6859 21.5585 16.3874" stroke="#3C7E5B" stroke-width="3" stroke-linecap="round"/>
<path d="M16.4429 2.332C17.2672 4.21371 18.0133 8.30769 14.4032 9.63C10.7932 10.9523 11.6399 14.6859 12.5146 16.3874" stroke="#3C7E5B" stroke-width="3" stroke-linecap="round"/>
<path d="M34.5308 2.332C35.3551 4.21371 36.1011 8.30769 32.4911 9.63C28.881 10.9523 29.7278 14.6859 30.6025 16.3874" stroke="#3C7E5B" stroke-width="3" stroke-linecap="round"/>
<path d="M36.9274 30.114C37.4212 30.4674 37.5114 30.6857 37.5268 30.7367C37.5114 30.7877 37.4212 31.006 36.9274 31.3594C36.3227 31.7921 35.3507 32.2437 34.0145 32.6481C31.361 33.4513 27.6049 33.9702 23.3915 33.9702C19.1782 33.9702 15.422 33.4513 12.7685 32.6481C11.4324 32.2437 10.4603 31.7921 9.85562 31.3594C9.36183 31.006 9.27162 30.7877 9.25625 30.7367C9.27162 30.6857 9.36183 30.4674 9.85562 30.114C10.4603 29.6812 11.4324 29.2297 12.7685 28.8252C15.422 28.022 19.1782 27.5031 23.3915 27.5031C27.6049 27.5031 31.361 28.022 34.0145 28.8252C35.3507 29.2297 36.3227 29.6812 36.9274 30.114Z" fill="#3C7E5B" stroke="#3C7E5B" stroke-width="3"/>
<path d="M56.1894 35.9931C54.764 30.0263 47.7257 29.1882 44.6754 32.2522V37.3133C46.5421 35.6263 50.4205 33.8884 51.235 37.9373C52.0496 41.9863 47.2209 42.3745 44.6754 42.3745L43.1482 46.3702C52.0572 48.7675 57.9712 43.4517 56.1894 35.9931Z" stroke="#3C7E5B" stroke-width="3" stroke-linecap="round"/>
</svg>
