<svg width="73" height="27" viewBox="0 0 73 27" fill="none" xmlns="http://www.w3.org/2000/svg">
<path d="M1.20731 7.31111H4.11931V26.4211H1.20731V7.31111ZM0.531309 4.39911L5.62731 0.525111L7.18731 2.68311L1.64931 6.11511L0.531309 4.39911ZM13.5606 26.6811C12.3819 26.6811 11.3159 26.4298 10.3626 25.9271C9.42655 25.4071 8.68122 24.6704 8.12655 23.7171C7.57189 22.7464 7.29455 21.6111 7.29455 20.3111C7.29455 19.0804 7.54589 18.0058 8.04855 17.0871C8.56855 16.1511 9.28789 15.4318 10.2066 14.9291C11.1426 14.4264 12.2172 14.1751 13.4306 14.1751C14.3492 14.1751 15.1379 14.2964 15.7966 14.5391C16.4726 14.7644 17.0012 15.0504 17.3826 15.3971L16.1346 17.6591C15.4066 16.9311 14.5832 16.5671 13.6646 16.5671C12.5552 16.5671 11.7059 16.9051 11.1166 17.5811C10.5446 18.2571 10.2586 19.1584 10.2586 20.2851C10.2586 21.5678 10.5532 22.5644 11.1426 23.2751C11.7492 23.9858 12.5899 24.3411 13.6646 24.3411C14.2019 24.3411 14.7219 24.2631 15.2246 24.1071C15.7446 23.9511 16.1432 23.7691 16.4206 23.5611L17.4346 25.5371C17.0532 25.8318 16.5159 26.1004 15.8226 26.3431C15.1466 26.5684 14.3926 26.6811 13.5606 26.6811ZM25.3385 26.6811C24.1079 26.6811 23.0159 26.4038 22.0625 25.8491C21.1092 25.2944 20.3725 24.5404 19.8525 23.5871C19.3325 22.6338 19.0725 21.5764 19.0725 20.4151C19.0725 19.2711 19.3239 18.2224 19.8265 17.2691C20.3465 16.3158 21.0832 15.5618 22.0365 15.0071C22.9899 14.4524 24.0905 14.1751 25.3385 14.1751C26.5865 14.1751 27.6785 14.4524 28.6145 15.0071C29.5679 15.5618 30.2959 16.3158 30.7985 17.2691C31.3185 18.2224 31.5785 19.2711 31.5785 20.4151C31.5785 21.5764 31.3185 22.6338 30.7985 23.5871C30.2785 24.5404 29.5419 25.2944 28.5885 25.8491C27.6525 26.4038 26.5692 26.6811 25.3385 26.6811ZM25.4165 24.3931C26.4219 24.3931 27.2105 24.0204 27.7825 23.2751C28.3719 22.5298 28.6665 21.5938 28.6665 20.4671C28.6665 19.3404 28.3545 18.3958 27.7305 17.6331C27.1065 16.8531 26.2832 16.4631 25.2605 16.4631C24.2725 16.4631 23.4752 16.8444 22.8685 17.6071C22.2792 18.3698 21.9845 19.3231 21.9845 20.4671C21.9845 21.5764 22.3052 22.5124 22.9465 23.2751C23.5879 24.0204 24.4112 24.3931 25.4165 24.3931ZM34.2439 14.4871H36.9999L37.0259 16.6711C37.3553 15.9431 37.8753 15.3451 38.5859 14.8771C39.2966 14.4091 40.1286 14.1751 41.0819 14.1751C42.3126 14.1751 43.2573 14.4351 43.9159 14.9551C44.5746 15.4578 45.0166 16.1684 45.2419 17.0871C45.4673 18.0058 45.5799 19.2018 45.5799 20.6751V26.4211H42.7719V20.7531C42.7719 19.2451 42.6246 18.1618 42.3299 17.5031C42.0353 16.8271 41.4286 16.4891 40.5099 16.4891C39.9899 16.4891 39.4613 16.6538 38.9239 16.9831C38.3866 17.2951 37.9359 17.7544 37.5719 18.3611C37.2253 18.9678 37.0519 19.6784 37.0519 20.4931V26.4211H34.2439V14.4871ZM54.4297 26.6811C53.199 26.6811 52.107 26.4038 51.1537 25.8491C50.2004 25.2944 49.4637 24.5404 48.9437 23.5871C48.4237 22.6338 48.1637 21.5764 48.1637 20.4151C48.1637 19.2711 48.415 18.2224 48.9177 17.2691C49.4377 16.3158 50.1744 15.5618 51.1277 15.0071C52.081 14.4524 53.1817 14.1751 54.4297 14.1751C55.6777 14.1751 56.7697 14.4524 57.7057 15.0071C58.659 15.5618 59.387 16.3158 59.8897 17.2691C60.4097 18.2224 60.6697 19.2711 60.6697 20.4151C60.6697 21.5764 60.4097 22.6338 59.8897 23.5871C59.3697 24.5404 58.633 25.2944 57.6797 25.8491C56.7437 26.4038 55.6604 26.6811 54.4297 26.6811ZM54.5077 24.3931C55.513 24.3931 56.3017 24.0204 56.8737 23.2751C57.463 22.5298 57.7577 21.5938 57.7577 20.4671C57.7577 19.3404 57.4457 18.3958 56.8217 17.6331C56.1977 16.8531 55.3744 16.4631 54.3517 16.4631C53.3637 16.4631 52.5664 16.8444 51.9597 17.6071C51.3704 18.3698 51.0757 19.3231 51.0757 20.4671C51.0757 21.5764 51.3964 22.5124 52.0377 23.2751C52.679 24.0204 53.5024 24.3931 54.5077 24.3931ZM67.4431 26.6811C66.6111 26.6811 65.7444 26.5771 64.8431 26.3691C63.9591 26.1438 63.3264 25.8838 62.9451 25.5891L63.8811 23.3791C64.9211 24.1071 66.1084 24.4711 67.4431 24.4711C68.7778 24.4711 69.4451 24.0811 69.4451 23.3011C69.4451 22.9544 69.3064 22.6858 69.0291 22.4951C68.7518 22.3044 68.2578 22.0791 67.5471 21.8191L66.5591 21.4551C65.5191 21.0391 64.6958 20.5451 64.0891 19.9731C63.4824 19.3838 63.1791 18.6124 63.1791 17.6591C63.1791 16.5671 63.6038 15.7178 64.4531 15.1111C65.3198 14.4871 66.4724 14.1751 67.9111 14.1751C68.6218 14.1751 69.3151 14.2531 69.9911 14.4091C70.6844 14.5651 71.2131 14.7644 71.5771 15.0071L70.5631 17.2431C70.3378 17.0178 69.9738 16.8271 69.4711 16.6711C68.9858 16.4978 68.4398 16.4111 67.8331 16.4111C66.6024 16.4111 65.9871 16.7838 65.9871 17.5291C65.9871 17.9451 66.1518 18.2658 66.4811 18.4911C66.8104 18.6991 67.3478 18.9331 68.0931 19.1931C68.1624 19.2104 68.4311 19.3058 68.8991 19.4791C70.0084 19.9124 70.8318 20.4064 71.3691 20.9611C71.9064 21.5158 72.1751 22.2264 72.1751 23.0931C72.1751 24.2718 71.7244 25.1644 70.8231 25.7711C69.9391 26.3778 68.8124 26.6811 67.4431 26.6811Z" fill="#3C7E5B"/>
</svg>
