<svg width="55" height="54" viewBox="0 0 55 54" fill="none" xmlns="http://www.w3.org/2000/svg">
<path d="M27.1979 36.6101C36.1165 36.6101 40.8873 31.9629 41.4074 24.4433L43.2504 3.58183C43.302 2.99709 42.8413 2.49383 42.2543 2.49383L12.1416 2.49383C11.5545 2.49383 11.0938 2.9971 11.1454 3.58184L12.9884 24.4433C13.785 31.358 18.2793 36.6101 27.1979 36.6101Z" stroke="#3C7E5B" stroke-width="3"/>
<path d="M11.6126 13.8984C9.96056 10.5101 2.56366 9.62313 1.74442 15.2795C0.925172 20.9358 9.51832 25.7442 12.5905 27.3154" stroke="#3C7E5B" stroke-width="3" stroke-linecap="round"/>
<path d="M42.6698 14.1953C44.3219 10.807 51.7188 9.92001 52.5381 15.5764C53.3573 21.2327 44.7642 26.0411 41.692 27.6123" stroke="#3C7E5B" stroke-width="3" stroke-linecap="round"/>
<path d="M19.8916 47.4569C24.4464 46.9103 23.5498 40.9315 23.5498 37.1009H30.3446C30.3446 40.9315 29.4479 46.9103 34.0027 47.4569C36.6519 47.7748 38.5936 47.4569 38.5936 50.1464C38.5936 51.3412 38.3547 52.4744 37.5825 52.4744H16.3119C15.3008 52.4744 15.3008 50.8228 15.3008 50.1464C15.3008 47.8114 17.2424 47.7748 19.8916 47.4569Z" stroke="#3C7E5B" stroke-width="3" stroke-linecap="round"/>
<path d="M36.9953 8.20126L36.0212 22.6927C35.616 28.838 33.4368 31.0541 27.691 31.0541" stroke="#3C7E5B" stroke-width="3" stroke-linecap="round"/>
<circle cx="1.76877" cy="1.76877" r="1.76877" transform="matrix(1 8.74228e-08 8.74228e-08 -1 21.1227 31.8228)" fill="#3C7E5B"/>
</svg>
