<svg width="64" height="50" viewBox="0 0 64 50" fill="none" xmlns="http://www.w3.org/2000/svg">
<circle cx="47.4776" cy="27.0717" r="1.9233" transform="rotate(30 47.4776 27.0717)" fill="#3C7E5B"/>
<circle cx="47.4776" cy="35.117" r="1.9233" transform="rotate(30 47.4776 35.117)" fill="#3C7E5B"/>
<circle cx="51.5002" cy="31.0944" r="1.9233" transform="rotate(120 51.5002 31.0944)" fill="#3C7E5B"/>
<circle cx="43.455" cy="31.0944" r="1.9233" transform="rotate(120 43.455 31.0944)" fill="#3C7E5B"/>
<path d="M6.55968 25.8996C7.92816 19.5799 13.8905 15.347 20.308 16.1392L29.6741 17.2954C30.9353 17.4511 32.2109 17.4511 33.4721 17.2954L42.8382 16.1392C49.2557 15.347 55.2181 19.5799 56.5865 25.8996L59.1857 37.9029C60.2661 42.8922 56.4647 47.6049 51.3598 47.6049C49.6631 47.6049 48.0103 47.066 46.6397 46.0658L40.7099 41.7387C35.2663 37.7663 27.8799 37.7663 22.4363 41.7387L16.5065 46.0658C15.136 47.066 13.4831 47.6049 11.7864 47.6049C6.68154 47.6049 2.88008 42.8922 3.96047 37.9029L6.55968 25.8996Z" stroke="#3C7E5B" stroke-width="3"/>
<path d="M39.6978 9.0162L39.6423 7.51723L39.6978 9.0162ZM47.5951 2.24336C47.727 1.42551 47.1709 0.655567 46.3531 0.523655C45.5352 0.391743 44.7653 0.947811 44.6333 1.76567L47.5951 2.24336ZM33.0593 17.5015C33.4506 16.0926 33.8369 14.4213 34.8053 13.0117C35.6956 11.7158 37.1079 10.6131 39.7534 10.5152L39.6423 7.51723C35.9942 7.65234 33.7287 9.28072 32.3326 11.313C31.0145 13.2316 30.5056 15.4857 30.1687 16.6986L33.0593 17.5015ZM39.7534 10.5152C42.912 10.3982 44.8675 8.91998 46.0155 7.077C47.0957 5.34285 47.416 3.35382 47.5951 2.24336L44.6333 1.76567C44.4483 2.91287 44.1908 4.33226 43.4691 5.49083C42.8153 6.54056 41.7447 7.43937 39.6423 7.51723L39.7534 10.5152Z" fill="#3C7E5B"/>
<path d="M16.2574 26.2698L16.2574 35.117" stroke="#3C7E5B" stroke-width="3" stroke-linecap="round"/>
<path d="M20.6809 30.6934L11.8337 30.6934" stroke="#3C7E5B" stroke-width="3" stroke-linecap="round"/>
</svg>
