<svg width="61" height="46" viewBox="0 0 61 46" fill="none" xmlns="http://www.w3.org/2000/svg">
<path d="M47.2021 19.7388H47.1397L47.0774 19.7336L36.9299 18.8866C35.1161 18.7352 33.721 17.2189 33.721 15.3987V3.50525C33.721 2.67682 33.0494 2.00525 32.221 2.00525H21.7588C20.9304 2.00525 20.2588 2.67682 20.2588 3.50525V36.4682C20.2588 36.7443 20.4827 36.9682 20.7588 36.9682H57.3498C57.3672 36.963 57.4333 36.9429 57.5504 36.8764C57.7285 36.7752 57.9395 36.6138 58.1432 36.4086C58.3467 36.2035 58.5074 35.9905 58.6086 35.8098C58.678 35.6859 58.6975 35.6172 58.7021 35.6014V30.2388C58.7021 24.0415 53.7163 19.7388 47.2021 19.7388Z" stroke="#3C7E5B" stroke-width="3"/>
<path d="M36.34 18.1807C33.7222 20.7985 26.9159 24.4634 20.6332 18.1807" stroke="#3C7E5B" stroke-width="3"/>
<line y1="-1.5" x2="38.5938" y2="-1.5" transform="matrix(-1 0 0 1 59.2271 33.0388)" stroke="#3C7E5B" stroke-width="3"/>
<path d="M50.2424 20.3067C48.7447 20.6395 45.5495 21.9043 44.7508 24.3006" stroke="#3C7E5B" stroke-width="3" stroke-linecap="round"/>
<path d="M44.1891 20.3067C42.6914 20.6395 39.4963 21.9043 38.6975 24.3006" stroke="#3C7E5B" stroke-width="3" stroke-linecap="round"/>
<path d="M28.4434 26.8625H28.3809L28.3186 26.8574L18.1711 26.0104C16.3573 25.859 14.9622 24.3427 14.9622 22.5225V10.629C14.9622 9.8006 14.2906 9.12903 13.4622 9.12903H3C2.17157 9.12903 1.5 9.8006 1.5 10.629V43.592C1.5 43.8681 1.72387 44.092 2 44.092H38.2951C38.326 44.0787 38.3925 44.0472 38.4969 43.9784C38.71 43.8379 38.9661 43.6167 39.2168 43.3421C39.4665 43.0687 39.6733 42.7835 39.8087 42.54C39.9129 42.3528 39.9382 42.2565 39.9434 42.2431V37.3625C39.9434 31.1653 34.9575 26.8625 28.4434 26.8625Z" fill="white" stroke="#3C7E5B" stroke-width="3"/>
<path d="M17.5812 25.3045C14.9634 27.9223 8.15714 31.5872 1.87445 25.3045" stroke="#3C7E5B" stroke-width="3"/>
<line y1="-1.5" x2="38.5938" y2="-1.5" transform="matrix(-1 0 0 1 40.4683 40.1625)" stroke="#3C7E5B" stroke-width="3"/>
<path d="M31.4836 27.4305C29.9859 27.7633 26.7907 29.028 25.992 31.4244" stroke="#3C7E5B" stroke-width="3" stroke-linecap="round"/>
<path d="M25.4304 27.4305C23.9326 27.7633 20.7375 29.028 19.9388 31.4244" stroke="#3C7E5B" stroke-width="3" stroke-linecap="round"/>
</svg>
